<?xml version="1.0" encoding="iso-8859-1"?>
<!-- Uploaded to: SVG Repo, www.svgrepo.com, Generator: SVG Repo Mixer Tools -->
<svg height="800px" width="800px" version="1.1" id="Layer_1" xmlns="http://www.w3.org/2000/svg" xmlns:xlink="http://www.w3.org/1999/xlink" 
	 viewBox="0 0 392.598 392.598" xml:space="preserve">
<g>
	<path style="fill:#FFC10D;" d="M21.786,177.184v58.44h32.388c6.012,0,10.925,4.848,10.925,10.925
		c0,6.012-4.848,10.925-10.925,10.925H21.786v21.786h10.537c6.012,0,10.925,4.849,10.925,10.925c0,6.012-4.848,10.925-10.925,10.925
		H21.786v58.44l117.398-91.087L21.786,177.184z"/>
	<path style="fill:#FFC10D;" d="M42.731,370.8h307.071l-114.295-88.695l-32.582,25.341c-4.461,3.103-8.857,3.103-13.382,0
		l-32.517-25.341L42.731,370.8z"/>
	<polygon style="fill:#FFC10D;" points="370.747,359.422 370.747,177.184 253.349,268.271 	"/>
</g>
<g>
	<polygon style="fill:#FFFFFF;" points="333.059,178.8 363.895,154.816 333.059,130.962 	"/>
	<polygon style="fill:#FFFFFF;" points="59.475,130.962 28.638,154.816 59.475,178.8 	"/>
</g>
<polygon style="fill:#56ACE0;" points="81.261,195.673 196.267,284.95 311.273,195.673 311.273,62.436 81.261,62.436 "/>
<path style="fill:#194F82;" d="M388.267,146.218l-55.273-42.99V51.511c0-6.012-4.848-10.925-10.925-10.925h-69.754L202.99,2.38
	c-3.943-3.038-9.438-3.103-13.382,0l-49.325,38.271H70.4c-6.012,0-10.925,4.848-10.925,10.925v51.782L4.267,146.218
	C1.552,148.287,0,151.455,0,154.816v226.78c0,6.012,4.848,10.925,10.925,10.925h370.747c6.012,0,10.925-4.848,10.925-10.925v-226.78
	C392.533,151.519,390.982,148.352,388.267,146.218z M28.638,154.816l30.836-23.984v47.903L28.638,154.816z M175.838,40.586
	l20.428-15.838l20.428,15.838H175.838z M311.273,62.436v133.236L196.267,284.95L81.261,195.673V62.436H311.273z M202.99,307.382
	l32.582-25.341l114.295,88.695H42.731l114.295-88.63l32.582,25.341C194.004,310.42,198.529,310.42,202.99,307.382z M21.786,301.047
	h10.537c6.012,0,10.925-4.848,10.925-10.925c0-6.012-4.848-10.925-10.925-10.925H21.786v-21.85h32.388
	c6.012,0,10.925-4.848,10.925-10.925c0-6.012-4.848-10.925-10.925-10.925H21.786v-58.44l117.398,91.152L21.786,359.422V301.047z
	 M370.747,359.422L253.35,268.271l117.398-91.087V359.422z M333.059,178.8v-47.838l30.836,23.984L333.059,178.8z"/>
<path style="fill:#FFFFFF;" d="M245.398,131.867c0-12.735-10.99-22.95-24.048-21.721c-6.788,0.711-12.735,4.848-16.549,10.602
	c-4.008,6.206-13.123,6.206-17.131,0l0,0c-3.814-5.689-9.762-9.891-16.549-10.602c-12.994-1.293-24.048,8.986-24.048,21.721
	c0,14.869,26.764,44.412,49.067,64.194C218.57,176.02,245.398,146.218,245.398,131.867z"/>
<path style="fill:#194F82;" d="M223.612,88.295c-10.149,0-19.717,3.491-27.345,9.632c-7.628-6.206-17.261-9.632-27.345-9.632
	c-24.048,0-43.572,19.523-43.572,43.572c0,32.388,53.333,78.222,64,87.014l0.388,0.323c3.814,3.168,9.374,3.168,13.123-0.065
	l0.388-0.323c10.667-8.986,63.935-55.402,63.935-87.014C267.184,107.818,247.661,88.295,223.612,88.295z M147.135,131.867
	c0-12.735,10.99-22.95,24.048-21.721c6.788,0.711,12.735,4.848,16.549,10.602l0,0c4.008,6.206,13.123,6.206,17.131,0
	c3.814-5.689,9.762-9.891,16.549-10.602c12.994-1.293,24.048,8.986,24.048,21.721c0,14.352-26.828,44.154-49.196,64.194
	C173.834,176.279,147.135,146.735,147.135,131.867z"/>
<polygon style="fill:#FFFFFF;" points="196.267,24.748 175.838,40.586 216.695,40.586 "/>
</svg>